<svg fill="#755036" version="1.1" id="Capa_1" xmlns="http://www.w3.org/2000/svg" xmlns:xlink="http://www.w3.org/1999/xlink" viewBox="0 0 126.352 126.352" xml:space="preserve"><g id="SVGRepo_bgCarrier" stroke-width="0"></g><g id="SVGRepo_tracerCarrier" stroke-linecap="round" stroke-linejoin="round"></g><g id="SVGRepo_iconCarrier"> <g> <path d="M126.161,43.388c0.691-4.602-0.501-9.202-3.354-12.965c-1.461-1.912-3.28-3.504-5.342-4.704 c1.323-1.324,2.125-2.975,2.283-4.901c0.264-3.209-1.255-6.429-2.821-7.831c-3.902-3.483-8.284-5.245-13.025-5.245 c-18.473,0-36.226,26.542-36.982,27.675c-0.048,0.077-0.048,0.164-0.079,0.246c-0.034,0.079-0.056,0.134-0.076,0.219 c-0.071,0.303-0.071,0.611,0.087,0.896c0,0,0,0.005,0,0.013l0,0v0.006c0.113,0.221,0.29,0.393,0.495,0.521 c0.113,0.071,0.248,0.077,0.377,0.108c0.104,0.026,0.195,0.092,0.304,0.092c10.927,0.113,16.39,1.964,21.226,4.714 c8.722,4.946,14.08,6.966,18.504,6.966c3.739,0,6.84-1.448,9.735-4.543c3.101-3.309,4.514-6.787,4.187-10.322 c-0.031-0.335-0.147-0.622-0.211-0.947c1.767,2.906,2.531,6.249,2.021,9.608c-1.44,9.519-8.902,12.847-21.985,17.912 c-2.61,1.015-5.305,1.896-8.163,2.829c-12.456,4.086-25.273,8.369-30.162,22.929c-4.891-14.555-17.711-18.837-30.164-22.929 c-2.855-0.939-5.55-1.819-8.161-2.829C11.775,55.835,4.302,52.502,2.866,42.994c-0.509-3.359,0.253-6.697,2.024-9.608 c-0.061,0.325-0.179,0.606-0.211,0.947c-0.324,3.541,1.087,7.014,4.185,10.322c2.9,3.096,5.996,4.543,9.737,4.543 c4.422,0,9.785-2.02,18.505-6.966c4.833-2.75,10.288-4.606,21.223-4.714c0.108,0,0.201-0.066,0.304-0.092 c0.129-0.032,0.264-0.037,0.377-0.108c0.211-0.124,0.382-0.3,0.496-0.521V36.79l0,0c0-0.008,0-0.013,0-0.013 c0.147-0.285,0.153-0.594,0.087-0.896c-0.016-0.085-0.037-0.14-0.074-0.219c-0.034-0.082-0.029-0.169-0.082-0.246 C58.69,34.283,40.94,7.741,22.467,7.741c-4.741,0-9.121,1.762-13.02,5.245c-1.571,1.397-3.098,4.611-2.834,7.817 c0.158,1.928,0.962,3.591,2.292,4.915c-2.065,1.2-3.9,2.792-5.358,4.709c-2.855,3.763-4.044,8.369-3.354,12.96 C1.85,54.356,10.269,58.14,23.872,63.421c0.011,0.006,0.026,0.006,0.037,0.011c-6.442,0.72-11.464,4.216-14.381,10.323 c-1.5-0.254-3.061-0.158-4.438,0.585c-1.653,0.896-2.853,2.378-3.385,4.171c-0.536,1.793-0.335,3.697,0.562,5.337 c1.231,2.268,3.596,3.671,6.17,3.671c1.163,0,2.317-0.296,3.338-0.839c3.396-1.851,4.672-6.122,2.829-9.529 c-0.583-1.07-1.505-1.846-2.526-2.468c3.839-7.768,11.475-10.531,21.647-7.681c0.153,0.047,0.288-0.042,0.432-0.048 c11.378,3.763,22.708,8.129,26.742,21.239c0.756,2.457,0.97,4.936,0.835,7.372c-0.016,0.031-0.058,0.031-0.068,0.079 c-2.842,7.093-7.826,10.178-13.959,8.696c-4.807-1.15-7.784-5.976-6.636-10.779c0.907-3.713,4.653-5.996,8.332-5.11 c1.36,0.333,2.515,1.16,3.251,2.357c0.733,1.202,0.954,2.61,0.625,3.971c-0.227,0.955-0.81,1.735-1.604,2.289 c-0.021-0.354-0.098-0.718-0.253-1.06c-0.699-1.467-2.458-2.126-3.937-1.43c-1.487,0.696-2.123,2.447-1.427,3.939 c0.227,0.485,0.599,0.844,1.015,1.129c0.177,0.321,0.459,0.574,0.846,0.664c1.73,0.422,3.502,0.127,5.013-0.797 c1.506-0.917,2.565-2.378,2.974-4.107c0.499-2.067,0.164-4.192-0.949-6.007c-1.113-1.804-2.855-3.074-4.92-3.56 c-5.107-1.244-10.326,1.936-11.588,7.088c-1.49,6.254,2.386,12.551,8.635,14.054c1.237,0.301,2.441,0.442,3.602,0.442 c3.298,0,6.249-1.238,8.704-3.506c-0.134,0.253-0.208,0.527-0.355,0.77c-3.314,5.526-9.208,9.492-16.161,10.853 c-5.089,1.002-10.257-0.053-14.555-2.953c-4.298-2.89-7.214-7.288-8.208-12.371c-0.14-0.728-0.857-1.202-1.582-1.065 c-0.733,0.147-1.21,0.854-1.068,1.593c1.128,5.779,4.448,10.8,9.347,14.091c3.694,2.479,7.947,3.775,12.3,3.775 c1.421,0,2.85-0.137,4.276-0.422c7.708-1.498,14.257-5.928,17.967-12.107c0.757-1.266,1.34-2.595,1.825-3.945 c0.491,1.361,1.081,2.689,1.835,3.955c3.71,6.191,10.249,10.6,17.958,12.098c1.43,0.285,2.854,0.422,4.277,0.422 c4.355,0,8.611-1.297,12.298-3.775c4.898-3.291,8.216-8.312,9.344-14.091c0.138-0.738-0.332-1.445-1.064-1.593 c-0.744-0.132-1.445,0.338-1.582,1.065c-0.997,5.083-3.908,9.481-8.211,12.371c-4.309,2.9-9.461,3.935-14.55,2.964 c-6.95-1.36-12.841-5.315-16.157-10.853c-0.146-0.243-0.222-0.517-0.346-0.771c2.452,2.278,5.397,3.496,8.688,3.496 c1.155,0,2.363-0.142,3.597-0.442c6.249-1.492,10.125-7.789,8.638-14.054c-1.249-5.152-6.434-8.363-11.575-7.088 c-4.261,1.013-6.895,5.3-5.88,9.566c0.406,1.719,1.461,3.19,2.975,4.107c1.514,0.929,3.291,1.229,5.01,0.797 c0.385-0.09,0.67-0.343,0.849-0.664c0.417-0.285,0.786-0.644,1.013-1.129c0.696-1.482,0.068-3.248-1.429-3.939 c-1.472-0.696-3.238-0.053-3.939,1.43c-0.153,0.342-0.232,0.706-0.253,1.06c-0.791-0.554-1.377-1.334-1.604-2.289 c-0.67-2.811,1.065-5.653,3.892-6.328c3.702-0.896,7.415,1.403,8.312,5.1c1.149,4.814-1.83,9.64-6.634,10.79 c-6.128,1.486-11.111-1.604-13.954-8.696c-0.01-0.037-0.053-0.048-0.068-0.079c-0.135-2.437,0.082-4.915,0.831-7.372 c4.044-13.11,15.364-17.461,26.75-21.244c0.143,0.011,0.274,0.095,0.427,0.053c10.178-2.845,17.814-0.093,21.664,7.691 c-1.023,0.611-1.951,1.387-2.548,2.468c-1.835,3.396-0.559,7.668,2.832,9.519c1.018,0.554,2.178,0.839,3.344,0.839 c2.578,0,4.946-1.403,6.17-3.671c0.896-1.646,1.097-3.544,0.559-5.337s-1.729-3.274-3.38-4.171 c-1.371-0.738-2.933-0.828-4.425-0.575c-2.927-6.106-7.952-9.613-14.391-10.338c0.01,0,0.021-0.006,0.031-0.011 C116.083,58.145,124.5,54.361,126.161,43.388z M75.995,28.131l4.071,1.028c-2.969,1.213-5.585,2.381-7.684,3.365 C73.39,31.227,74.597,29.742,75.995,28.131z M81.094,31.665l-1.582,4.179c-1.814-0.351-3.854-0.62-6.186-0.799 C75.625,33.969,78.273,32.804,81.094,31.665z M84.48,30.346c1.798-0.675,3.644-1.313,5.495-1.912l-3.724,9.342 c-1.218-0.49-2.562-0.938-4.076-1.339L84.48,30.346z M92.849,24.735l-9.129-4.482c1.382-1.234,2.832-2.413,4.335-3.515 c0.079,0.108,0.084,0.242,0.185,0.324l8.644,6.668C95.539,24.023,94.194,24.358,92.849,24.735z M96.593,11.932l8.579,10.654 c-1.539,0.066-3.121,0.201-4.767,0.459l-10.141-7.823C92.316,13.883,94.441,12.759,96.593,11.932z M106.528,25.233l-6.19,19.52 c-1.498-0.599-3.164-1.376-5.021-2.32l6.17-16.806C103.264,25.363,104.946,25.233,106.528,25.233z M117.059,20.596 c-0.079,0.944-0.417,1.759-0.912,2.489l-7.167-11.736c2.151,0.746,4.225,1.922,6.154,3.642 C116.057,15.826,117.249,18.246,117.059,20.596z M105.563,10.6c0.026,0.156-0.016,0.319,0.068,0.459l7.694,12.593 c-1.397-0.53-2.942-0.854-4.62-1.004l-9.339-11.588c1.503-0.38,3.021-0.622,4.53-0.622C104.46,10.437,105.004,10.539,105.563,10.6z M81.595,22.22l7.451,3.66c-1.646,0.529-3.259,1.081-4.836,1.663c-0.089-0.037-0.115-0.14-0.216-0.166l-5.97-1.508 C79.148,24.661,80.334,23.436,81.595,22.22z M88.714,38.884l4.566-11.443c1.73-0.49,3.449-0.923,5.121-1.269l-5.5,14.99 c-0.755-0.409-1.509-0.82-2.326-1.284C89.991,39.543,89.374,39.208,88.714,38.884z M102.889,45.66l6.418-20.261 c0.021,0.006,0.037,0.006,0.063,0.011c0.2,0.354,0.512,0.633,0.949,0.686c1.26,0.158,2.473,0.524,3.644,0.983l-5.874,19.177 c-0.021,0.069,0.031,0.129,0.021,0.206c-0.116,0-0.227,0.031-0.343,0.031C106.312,46.488,104.724,46.222,102.889,45.66z M115.514,42.805c-1.45,1.545-2.916,2.516-4.498,3.082l5.263-17.159c1.165,1.36,2.489,3.385,2.71,5.858 C119.237,37.317,118.072,40.089,115.514,42.805z M36.091,15.211l-10.146,7.833c-1.643-0.264-3.225-0.393-4.768-0.459l8.585-10.66 C31.922,12.754,34.04,13.877,36.091,15.211z M41.875,30.341l2.31,6.102c-1.516,0.4-2.861,0.849-4.077,1.339l-3.726-9.347 C38.234,29.028,40.078,29.666,41.875,30.341z M53.981,32.529c-2.099-0.989-4.72-2.157-7.688-3.364l4.076-1.034 C51.763,29.742,52.971,31.232,53.981,32.529z M53.032,35.045c-2.323,0.174-4.369,0.448-6.183,0.799l-1.587-4.185 C48.09,32.804,50.735,33.969,53.032,35.045z M29.475,23.73l8.646-6.673c0.108-0.082,0.113-0.216,0.19-0.325 c1.495,1.097,2.948,2.286,4.337,3.515l-9.139,4.482C32.16,24.358,30.815,24.028,29.475,23.73z M24.876,25.616l6.165,16.816 c-1.856,0.944-3.52,1.717-5.021,2.32l-6.188-19.53C21.415,25.229,23.1,25.357,24.876,25.616z M7.375,34.586 c0.221-2.468,1.545-4.493,2.71-5.854l5.261,17.154c-1.582-0.566-3.051-1.537-4.499-3.082C8.292,40.089,7.131,37.323,7.375,34.586z M18.261,46.454c-0.005-0.074,0.042-0.135,0.021-0.203l-5.875-19.172c1.171-0.459,2.386-0.825,3.649-0.988 c0.443-0.053,0.746-0.335,0.952-0.696c0.016,0,0.026,0,0.042-0.005l6.42,20.266c-1.835,0.562-3.428,0.828-4.864,0.828 C18.488,46.488,18.38,46.454,18.261,46.454z M35.772,39.878c-0.815,0.464-1.577,0.875-2.326,1.284l-5.502-14.995 c1.679,0.346,3.391,0.783,5.123,1.269l4.569,11.448C36.987,39.208,36.373,39.543,35.772,39.878z M48.328,25.864l-5.972,1.508 c-0.097,0.026-0.129,0.129-0.216,0.171c-1.566-0.577-3.19-1.134-4.833-1.669l7.462-3.659 C46.039,23.436,47.215,24.656,48.328,25.864z M26.997,11.063l-9.342,11.589c-1.68,0.14-3.228,0.469-4.617,1.004l7.697-12.598 c0.087-0.14,0.042-0.303,0.069-0.454c0.556-0.066,1.107-0.164,1.674-0.164C23.986,10.437,25.491,10.679,26.997,11.063z M11.245,14.995c1.925-1.714,3.987-2.895,6.136-3.646l-7.161,11.73c-0.501-0.73-0.836-1.545-0.912-2.497 C9.112,18.233,10.312,15.826,11.245,14.995z M10.501,84.312c-2.025,1.098-4.746,0.274-5.849-1.74 c-0.551-1.018-0.675-2.172-0.345-3.279c0.33-1.098,1.068-2.015,2.083-2.574c0.633-0.326,1.345-0.527,2.059-0.527 c1.582,0,3.035,0.865,3.8,2.258C13.368,80.547,12.589,83.173,10.501,84.312z M119.981,76.718c1.012,0.56,1.756,1.467,2.083,2.574 c0.332,1.107,0.205,2.277-0.343,3.279c-1.087,2.015-3.803,2.848-5.849,1.74c-2.094-1.139-2.869-3.765-1.74-5.854 c0.76-1.402,2.215-2.268,3.808-2.268C118.636,76.19,119.337,76.364,119.981,76.718z"></path> </g> </g></svg>