<svg width="344" height="182" viewBox="0 0 344 182" fill="none" xmlns="http://www.w3.org/2000/svg">
<path d="M9.702 57.66H37.884V167H28.952L24.948 124.188H17.094L10.01 167H2.772L9.702 57.66ZM27.258 116.95C27.874 116.95 28.182 116.642 28.182 116.026V63.512C28.182 62.896 27.874 62.588 27.258 62.588H20.636C20.02 62.588 19.712 62.896 19.712 63.512V116.18C19.712 116.693 20.02 116.95 20.636 116.95H27.258ZM88.6378 167C83.4018 167 79.5005 166.127 76.9338 164.382C74.3672 162.534 73.0838 160.224 73.0838 157.452V66.284C73.0838 63.82 74.1618 61.7667 76.3178 60.124C78.4738 58.4813 81.5025 57.66 85.4038 57.66H110.66V66.284L108.196 85.534H98.0318L96.4918 68.132C96.3892 67.208 95.7732 66.746 94.6438 66.746H88.1758C85.9172 66.746 84.4285 67.6187 83.7098 69.364C83.0938 71.0067 82.8372 73.368 82.9398 76.448L86.1738 153.294C86.1738 153.91 86.4818 154.218 87.0978 154.218H96.1838C97.3132 154.218 97.9292 153.91 98.0318 153.294L101.112 141.282H110.66V167H88.6378ZM123.504 86.612L120.27 84.764V77.372H149.222L149.53 100.164H142.908C142.908 99.0347 142.6 96.5193 141.984 92.618C141.368 88.614 140.752 86.612 140.136 86.612L131.666 86.458L133.668 167H123.504V86.612ZM158.979 77.372H170.375L169.143 159.146L171.299 163.766L171.145 170.696H159.595L158.979 77.372ZM156.053 64.744L168.989 48.112L176.073 55.504L161.289 68.44L156.053 64.744Z" fill="#755036"/>
<path d="M177.624 140.454L178.702 66.688H172.08V62.068L178.702 58.526L181.32 38.66H188.712V58.372H203.804V67.612H188.404V136.912L197.182 139.684L198.722 126.902H204.112V148H184.246L177.624 140.454ZM212.779 58.372H224.175L222.943 140.146L225.099 144.766L224.945 151.696H213.395L212.779 58.372ZM211.239 34.656H225.561V49.286L211.855 49.748L211.239 34.656ZM245.595 148C243.131 148 241.18 147.538 239.743 146.614C238.408 145.587 237.741 144.201 237.741 142.456V64.84C237.741 62.4787 238.408 60.836 239.743 59.912C241.077 58.8853 243.028 58.372 245.595 58.372H265.307L264.845 76.698H258.531L256.837 68.382C256.631 67.6633 256.169 67.304 255.451 67.304H248.059C247.443 67.304 247.032 67.4067 246.827 67.612C246.724 67.8173 246.673 68.1767 246.673 68.69L248.213 137.99C248.213 138.811 248.623 139.222 249.445 139.222L257.453 140.146C258.069 140.146 258.479 139.684 258.685 138.76L259.147 129.212H265.769V148H245.595ZM275.753 142.148V103.032L282.067 98.104H296.389L295.773 68.382C295.773 67.5607 295.363 67.15 294.541 67.15L285.147 66.072C284.223 66.072 283.659 66.4827 283.453 67.304L282.837 77.16H276.677L276.215 58.372H300.393L306.245 63.454V148H282.375L275.753 142.148ZM295.465 139.068C296.081 139.068 296.441 138.965 296.543 138.76C296.749 138.555 296.851 138.195 296.851 137.682L296.081 106.266L287.457 108.268C286.533 108.473 286.071 109.038 286.071 109.962V137.682C286.071 138.606 286.533 139.068 287.457 139.068H295.465Z" fill="#755036"/>
<path d="M324.242 138.74L320.7 58.66H336.716L330.864 139.664L324.242 138.74ZM320.7 153.832L335.484 153.216L334.868 168H320.7V153.832Z" fill="#755036"/>
<path d="M178.843 157.315C178.843 156.85 178.868 156.417 178.918 156.017C178.968 155.612 179.08 155.26 179.255 154.96C179.435 154.66 179.693 154.425 180.028 154.255C180.368 154.085 180.823 154 181.393 154C181.518 154 181.65 154.01 181.79 154.03C181.935 154.045 182.078 154.07 182.218 154.105C182.363 154.14 182.5 154.185 182.63 154.24C182.76 154.29 182.878 154.347 182.983 154.412L182.308 155.267C182.218 155.267 182.11 155.28 181.985 155.305C181.865 155.33 181.75 155.395 181.64 155.5C181.53 155.6 181.438 155.752 181.363 155.957C181.288 156.162 181.25 156.442 181.25 156.797V166.345C181.25 166.715 181.288 167 181.363 167.2C181.443 167.4 181.535 167.548 181.64 167.643C181.745 167.738 181.853 167.793 181.963 167.808C182.078 167.828 182.173 167.838 182.248 167.838L182.983 168.738C182.878 168.803 182.76 168.86 182.63 168.91C182.5 168.965 182.363 169.01 182.218 169.045C182.078 169.08 181.935 169.105 181.79 169.12C181.65 169.14 181.518 169.15 181.393 169.15C180.823 169.15 180.368 169.058 180.028 168.873C179.693 168.693 179.435 168.445 179.255 168.13C179.08 167.815 178.968 167.45 178.918 167.035C178.868 166.62 178.843 166.18 178.843 165.715V157.315ZM191.966 165.88C191.806 165.95 191.603 166.008 191.358 166.053C191.118 166.103 190.853 166.128 190.563 166.128C190.228 166.128 189.898 166.078 189.573 165.977C189.253 165.877 188.948 165.735 188.658 165.55C188.373 165.365 188.111 165.145 187.871 164.89C187.631 164.63 187.423 164.345 187.248 164.035C187.073 163.72 186.936 163.385 186.836 163.03C186.741 162.67 186.693 162.297 186.693 161.912C186.693 161.327 186.791 160.775 186.986 160.255C187.181 159.735 187.461 159.28 187.826 158.89C188.191 158.5 188.631 158.192 189.146 157.967C189.661 157.737 190.241 157.622 190.886 157.622C190.976 157.622 191.051 157.625 191.111 157.63C191.171 157.63 191.226 157.635 191.276 157.645L191.958 158.815V157.6L194.403 157.75V166.308C194.403 166.803 194.308 167.265 194.118 167.695C193.928 168.13 193.658 168.508 193.308 168.828C192.958 169.153 192.533 169.408 192.033 169.593C191.538 169.783 190.981 169.878 190.361 169.878C190.036 169.878 189.736 169.85 189.461 169.795C189.191 169.745 188.938 169.67 188.703 169.57C188.468 169.47 188.248 169.345 188.043 169.195C187.838 169.05 187.638 168.883 187.443 168.693L188.523 167.44C188.603 167.51 188.708 167.588 188.838 167.673C188.968 167.763 189.111 167.845 189.266 167.92C189.426 168 189.593 168.065 189.768 168.115C189.948 168.17 190.123 168.198 190.293 168.198C190.503 168.198 190.708 168.145 190.908 168.04C191.113 167.94 191.293 167.8 191.448 167.62C191.603 167.44 191.728 167.228 191.823 166.983C191.918 166.743 191.966 166.483 191.966 166.203V165.88ZM191.958 159.85C191.818 159.69 191.653 159.55 191.463 159.43C191.278 159.31 191.073 159.25 190.848 159.25C190.548 159.25 190.291 159.34 190.076 159.52C189.861 159.7 189.683 159.927 189.543 160.202C189.408 160.472 189.308 160.767 189.243 161.087C189.178 161.407 189.146 161.71 189.146 161.995C189.146 162.35 189.191 162.68 189.281 162.985C189.371 163.29 189.488 163.555 189.633 163.78C189.778 164.005 189.941 164.182 190.121 164.312C190.306 164.437 190.491 164.5 190.676 164.5C190.971 164.5 191.218 164.437 191.418 164.312C191.618 164.187 191.798 164.032 191.958 163.847V159.85ZM204.024 166H201.474V165.25L200.844 165.962C200.669 166.017 200.494 166.058 200.319 166.083C200.149 166.113 199.989 166.128 199.839 166.128C199.424 166.128 199.007 166.068 198.587 165.947C198.167 165.822 197.787 165.642 197.447 165.407C197.112 165.167 196.837 164.872 196.622 164.522C196.412 164.172 196.307 163.77 196.307 163.315C196.307 162.835 196.414 162.42 196.629 162.07C196.844 161.72 197.127 161.432 197.477 161.207C197.832 160.977 198.232 160.807 198.677 160.697C199.122 160.587 199.577 160.532 200.042 160.532C200.327 160.532 200.587 160.542 200.822 160.562C201.057 160.577 201.274 160.602 201.474 160.637C201.454 160.212 201.347 159.875 201.152 159.625C200.957 159.375 200.657 159.25 200.252 159.25C200.032 159.25 199.809 159.262 199.584 159.287C199.364 159.312 199.152 159.347 198.947 159.392C198.742 159.437 198.549 159.487 198.369 159.542C198.194 159.597 198.039 159.655 197.904 159.715L197.199 158.327C197.429 158.222 197.649 158.127 197.859 158.042C198.074 157.952 198.299 157.877 198.534 157.817C198.774 157.752 199.037 157.705 199.322 157.675C199.607 157.64 199.942 157.622 200.327 157.622C200.967 157.622 201.509 157.702 201.954 157.862C202.404 158.017 202.769 158.24 203.049 158.53C203.329 158.815 203.532 159.16 203.657 159.565C203.787 159.965 203.852 160.407 203.852 160.892V164.5L204.024 166ZM201.474 162.25C201.399 162.245 201.312 162.24 201.212 162.235C201.112 162.23 201.009 162.227 200.904 162.227C200.799 162.222 200.694 162.22 200.589 162.22C200.489 162.215 200.402 162.213 200.327 162.213C200.137 162.213 199.947 162.23 199.757 162.265C199.572 162.3 199.407 162.36 199.262 162.445C199.117 162.53 198.999 162.642 198.909 162.782C198.819 162.922 198.774 163.097 198.774 163.307C198.774 163.477 198.804 163.632 198.864 163.772C198.929 163.907 199.014 164.025 199.119 164.125C199.224 164.225 199.344 164.302 199.479 164.357C199.614 164.412 199.754 164.44 199.899 164.44C200.184 164.44 200.457 164.377 200.717 164.252C200.977 164.127 201.229 163.96 201.474 163.75V162.25ZM212.655 159.985C212.515 159.895 212.368 159.807 212.213 159.722C212.058 159.637 211.89 159.562 211.71 159.497C211.53 159.427 211.338 159.372 211.133 159.332C210.928 159.287 210.708 159.265 210.473 159.265C210.258 159.265 210.035 159.275 209.805 159.295C209.58 159.315 209.375 159.352 209.19 159.407C209.005 159.457 208.853 159.53 208.733 159.625C208.613 159.715 208.553 159.83 208.553 159.97C208.553 160.1 208.62 160.212 208.755 160.307C208.89 160.397 209.06 160.477 209.265 160.547C209.47 160.617 209.693 160.677 209.933 160.727C210.178 160.777 210.41 160.825 210.63 160.87C210.885 160.925 211.133 160.98 211.373 161.035C211.613 161.09 211.808 161.145 211.958 161.2C212.208 161.3 212.443 161.422 212.663 161.567C212.888 161.712 213.083 161.877 213.248 162.062C213.418 162.242 213.55 162.44 213.645 162.655C213.745 162.87 213.795 163.097 213.795 163.337C213.795 163.672 213.728 163.975 213.593 164.245C213.463 164.51 213.283 164.745 213.053 164.95C212.828 165.155 212.565 165.332 212.265 165.482C211.97 165.632 211.655 165.755 211.32 165.85C210.99 165.945 210.653 166.015 210.308 166.06C209.963 166.105 209.633 166.128 209.318 166.128C209.018 166.128 208.72 166.105 208.425 166.06C208.13 166.02 207.848 165.962 207.578 165.887C207.308 165.812 207.055 165.725 206.82 165.625C206.59 165.52 206.39 165.407 206.22 165.287L206.955 163.712C207.3 163.922 207.665 164.097 208.05 164.237C208.44 164.372 208.868 164.44 209.333 164.44C209.448 164.44 209.58 164.435 209.73 164.425C209.885 164.41 210.043 164.387 210.203 164.357C210.368 164.322 210.53 164.28 210.69 164.23C210.85 164.175 210.993 164.107 211.118 164.027C211.243 163.947 211.343 163.852 211.418 163.742C211.498 163.627 211.538 163.495 211.538 163.345C211.538 163.21 211.478 163.095 211.358 163C211.238 162.9 211.085 162.815 210.9 162.745C210.715 162.675 210.513 162.617 210.293 162.572C210.073 162.522 209.863 162.477 209.663 162.437C209.518 162.407 209.37 162.377 209.22 162.347C209.075 162.312 208.935 162.277 208.8 162.242C208.665 162.207 208.54 162.172 208.425 162.137C208.31 162.097 208.213 162.057 208.133 162.017H208.14C207.81 161.862 207.535 161.7 207.315 161.53C207.1 161.355 206.928 161.177 206.798 160.997C206.673 160.812 206.583 160.622 206.528 160.427C206.478 160.232 206.453 160.035 206.453 159.835C206.453 159.455 206.563 159.127 206.783 158.852C207.003 158.572 207.295 158.342 207.66 158.162C208.03 157.977 208.453 157.842 208.928 157.757C209.408 157.667 209.908 157.622 210.428 157.622C210.708 157.622 210.988 157.645 211.268 157.69C211.553 157.73 211.823 157.785 212.078 157.855C212.333 157.92 212.565 157.995 212.775 158.08C212.985 158.165 213.158 158.25 213.293 158.335L212.655 159.985ZM219.958 163.09C219.958 163.345 219.963 163.56 219.973 163.735C219.988 163.905 220.016 164.042 220.056 164.147C220.096 164.252 220.151 164.327 220.221 164.372C220.291 164.417 220.386 164.44 220.506 164.44C220.741 164.44 220.961 164.412 221.166 164.357C221.371 164.297 221.558 164.227 221.728 164.147C221.903 164.062 222.061 163.972 222.201 163.877L222.576 163.63L223.356 164.987C223.291 165.042 223.176 165.132 223.011 165.257C222.851 165.382 222.636 165.51 222.366 165.64C222.096 165.77 221.768 165.885 221.383 165.985C221.003 166.08 220.563 166.128 220.063 166.128C219.523 166.128 219.088 166.043 218.758 165.872C218.433 165.702 218.183 165.472 218.008 165.182C217.838 164.892 217.726 164.552 217.671 164.162C217.616 163.772 217.588 163.36 217.588 162.925V159.43H215.773V157.75H217.588V156.175L219.928 155.35V157.75H223.371L223.168 159.43H219.958V163.09ZM228.244 158.5L228.822 157.75C229.092 157.675 229.352 157.635 229.602 157.63C229.852 157.625 230.097 157.622 230.337 157.622C230.742 157.622 231.094 157.645 231.394 157.69C231.694 157.735 231.952 157.792 232.167 157.862C232.387 157.927 232.567 157.997 232.707 158.072C232.847 158.142 232.959 158.205 233.044 158.26L233.419 160.487L231.319 160.75L230.952 159.43L230.652 159.385C230.552 159.37 230.452 159.362 230.352 159.362C229.867 159.362 229.452 159.452 229.107 159.632C228.762 159.807 228.474 160.055 228.244 160.375V166H225.867V157.75L228.244 157.6V158.5ZM239.238 166.128C238.638 166.128 238.088 166.02 237.588 165.805C237.088 165.585 236.655 165.285 236.29 164.905C235.93 164.52 235.648 164.067 235.443 163.547C235.243 163.027 235.143 162.462 235.143 161.852C235.143 161.247 235.24 160.685 235.435 160.165C235.63 159.645 235.905 159.195 236.26 158.815C236.62 158.435 237.053 158.137 237.558 157.922C238.063 157.702 238.623 157.602 239.238 157.622C239.838 157.602 240.385 157.702 240.88 157.922C241.375 158.137 241.798 158.435 242.148 158.815C242.503 159.195 242.778 159.645 242.973 160.165C243.168 160.685 243.265 161.247 243.265 161.852C243.265 162.462 243.17 163.027 242.98 163.547C242.795 164.067 242.528 164.52 242.178 164.905C241.828 165.285 241.405 165.585 240.91 165.805C240.415 166.02 239.858 166.128 239.238 166.128ZM240.82 162.04C240.82 161.7 240.79 161.365 240.73 161.035C240.675 160.705 240.583 160.41 240.453 160.15C240.323 159.885 240.155 159.672 239.95 159.512C239.745 159.352 239.498 159.272 239.208 159.272C238.928 159.272 238.685 159.342 238.48 159.482C238.28 159.617 238.115 159.8 237.985 160.03C237.855 160.26 237.758 160.522 237.693 160.817C237.628 161.107 237.595 161.407 237.595 161.717C237.595 162.062 237.628 162.4 237.693 162.73C237.758 163.06 237.858 163.355 237.993 163.615C238.128 163.87 238.3 164.077 238.51 164.237C238.72 164.397 238.973 164.477 239.268 164.477C239.538 164.477 239.77 164.41 239.965 164.275C240.165 164.135 240.328 163.95 240.453 163.72C240.578 163.49 240.67 163.23 240.73 162.94C240.79 162.65 240.82 162.35 240.82 162.04ZM247.749 166H245.371V157.75L247.749 157.6V158.5L248.326 157.75C248.516 157.7 248.719 157.667 248.934 157.652C249.154 157.632 249.409 157.622 249.699 157.622C250.154 157.622 250.564 157.69 250.929 157.825C251.294 157.96 251.601 158.152 251.851 158.402C252.106 158.647 252.301 158.947 252.436 159.302C252.571 159.652 252.639 160.045 252.639 160.48V166H250.261V160.48C250.261 160.275 250.229 160.1 250.164 159.955C250.104 159.805 250.024 159.682 249.924 159.587C249.824 159.492 249.709 159.422 249.579 159.377C249.449 159.332 249.314 159.31 249.174 159.31C248.859 159.31 248.591 159.362 248.371 159.467C248.156 159.567 247.949 159.725 247.749 159.94V166ZM258.749 166.128C258.149 166.128 257.599 166.02 257.099 165.805C256.599 165.585 256.167 165.285 255.802 164.905C255.442 164.52 255.159 164.067 254.954 163.547C254.754 163.027 254.654 162.462 254.654 161.852C254.654 161.247 254.752 160.685 254.947 160.165C255.142 159.645 255.417 159.195 255.772 158.815C256.132 158.435 256.564 158.137 257.069 157.922C257.574 157.702 258.134 157.602 258.749 157.622C259.349 157.602 259.897 157.702 260.392 157.922C260.887 158.137 261.309 158.435 261.659 158.815C262.014 159.195 262.289 159.645 262.484 160.165C262.679 160.685 262.777 161.247 262.777 161.852C262.777 162.462 262.682 163.027 262.492 163.547C262.307 164.067 262.039 164.52 261.689 164.905C261.339 165.285 260.917 165.585 260.422 165.805C259.927 166.02 259.369 166.128 258.749 166.128ZM260.332 162.04C260.332 161.7 260.302 161.365 260.242 161.035C260.187 160.705 260.094 160.41 259.964 160.15C259.834 159.885 259.667 159.672 259.462 159.512C259.257 159.352 259.009 159.272 258.719 159.272C258.439 159.272 258.197 159.342 257.992 159.482C257.792 159.617 257.627 159.8 257.497 160.03C257.367 160.26 257.269 160.522 257.204 160.817C257.139 161.107 257.107 161.407 257.107 161.717C257.107 162.062 257.139 162.4 257.204 162.73C257.269 163.06 257.369 163.355 257.504 163.615C257.639 163.87 257.812 164.077 258.022 164.237C258.232 164.397 258.484 164.477 258.779 164.477C259.049 164.477 259.282 164.41 259.477 164.275C259.677 164.135 259.839 163.95 259.964 163.72C260.089 163.49 260.182 163.23 260.242 162.94C260.302 162.65 260.332 162.35 260.332 162.04ZM261.239 156.85H259.589L259.064 156.077L258.839 155.125L258.614 156.077L258.007 156.85H256.214L257.677 154.75L259.852 154.6L261.239 156.85ZM266.54 166H264.178V157.75L266.54 157.6V158.5L267.118 157.75C267.168 157.72 267.255 157.692 267.38 157.667C267.51 157.637 267.623 157.622 267.718 157.622C267.963 157.622 268.17 157.632 268.34 157.652C268.515 157.667 268.668 157.697 268.798 157.742C268.928 157.787 269.04 157.847 269.135 157.922C269.235 157.997 269.333 158.092 269.428 158.207C269.523 158.142 269.635 158.077 269.765 158.012C269.9 157.942 270.04 157.88 270.185 157.825C270.335 157.765 270.488 157.717 270.643 157.682C270.803 157.642 270.96 157.622 271.115 157.622C271.6 157.622 271.983 157.69 272.263 157.825C272.543 157.96 272.755 158.152 272.9 158.402C273.045 158.647 273.138 158.947 273.178 159.302C273.218 159.652 273.238 160.045 273.238 160.48V166H270.875V160.547C270.875 160.347 270.873 160.172 270.868 160.022C270.863 159.872 270.848 159.75 270.823 159.655C270.803 159.555 270.768 159.482 270.718 159.437C270.673 159.387 270.605 159.362 270.515 159.362C270.43 159.362 270.348 159.38 270.268 159.415C270.193 159.45 270.123 159.497 270.058 159.557C269.998 159.617 269.945 159.687 269.9 159.767C269.86 159.842 269.835 159.925 269.825 160.015V160.165C269.825 160.225 269.825 160.287 269.825 160.352C269.83 160.412 269.833 160.47 269.833 160.525V166H267.553V160.69C267.553 160.265 267.53 159.937 267.485 159.707C267.445 159.477 267.348 159.362 267.193 159.362C267.048 159.362 266.913 159.41 266.788 159.505C266.668 159.6 266.585 159.755 266.54 159.97V166ZM276.971 154.742H279.499V156.7H276.971V154.742ZM277.564 159.13L276.289 159.43H274.976L274.766 157.75H279.491V162.827C279.491 163.032 279.516 163.222 279.566 163.397C279.616 163.567 279.686 163.715 279.776 163.84C279.866 163.96 279.974 164.055 280.099 164.125C280.224 164.195 280.361 164.23 280.511 164.23C280.841 164.23 281.131 164.175 281.381 164.065C281.631 163.955 281.886 163.775 282.146 163.525L282.589 165.265C282.519 165.32 282.431 165.395 282.326 165.49C282.221 165.585 282.081 165.68 281.906 165.775C281.736 165.87 281.526 165.952 281.276 166.023C281.026 166.093 280.724 166.128 280.369 166.128C279.794 166.128 279.296 166.038 278.876 165.857C278.461 165.677 278.116 165.435 277.841 165.13C277.571 164.82 277.369 164.462 277.234 164.057C277.104 163.647 277.039 163.215 277.039 162.76V159.805L277.564 159.13ZM290.574 160.21C290.334 159.925 290.067 159.717 289.772 159.587C289.482 159.457 289.147 159.392 288.767 159.392C288.462 159.392 288.177 159.46 287.912 159.595C287.647 159.725 287.414 159.902 287.214 160.127C287.019 160.352 286.864 160.615 286.749 160.915C286.639 161.21 286.584 161.522 286.584 161.852C286.584 162.197 286.642 162.517 286.757 162.812C286.877 163.102 287.037 163.352 287.237 163.562C287.437 163.772 287.667 163.937 287.927 164.057C288.192 164.172 288.472 164.23 288.767 164.23C289.027 164.23 289.262 164.207 289.472 164.162C289.687 164.112 289.877 164.047 290.042 163.967C290.212 163.882 290.359 163.787 290.484 163.682C290.614 163.577 290.724 163.467 290.814 163.352L291.744 164.972C291.654 165.052 291.519 165.157 291.339 165.287C291.164 165.417 290.944 165.545 290.679 165.67C290.414 165.795 290.102 165.902 289.742 165.992C289.382 166.083 288.974 166.128 288.519 166.128C287.854 166.128 287.249 166.008 286.704 165.767C286.164 165.527 285.702 165.207 285.317 164.807C284.932 164.407 284.634 163.945 284.424 163.42C284.214 162.89 284.109 162.337 284.109 161.763C284.109 161.242 284.209 160.735 284.409 160.24C284.614 159.74 284.907 159.297 285.287 158.912C285.672 158.522 286.139 158.21 286.689 157.975C287.239 157.74 287.859 157.622 288.549 157.622C289.224 157.622 289.834 157.717 290.379 157.908C290.929 158.092 291.399 158.397 291.789 158.822L290.574 160.21ZM301.583 166H299.033V165.25L298.403 165.962C298.228 166.017 298.053 166.058 297.878 166.083C297.708 166.113 297.548 166.128 297.398 166.128C296.983 166.128 296.565 166.068 296.145 165.947C295.725 165.822 295.345 165.642 295.005 165.407C294.67 165.167 294.395 164.872 294.18 164.522C293.97 164.172 293.865 163.77 293.865 163.315C293.865 162.835 293.973 162.42 294.188 162.07C294.403 161.72 294.685 161.432 295.035 161.207C295.39 160.977 295.79 160.807 296.235 160.697C296.68 160.587 297.135 160.532 297.6 160.532C297.885 160.532 298.145 160.542 298.38 160.562C298.615 160.577 298.833 160.602 299.033 160.637C299.013 160.212 298.905 159.875 298.71 159.625C298.515 159.375 298.215 159.25 297.81 159.25C297.59 159.25 297.368 159.262 297.143 159.287C296.923 159.312 296.71 159.347 296.505 159.392C296.3 159.437 296.108 159.487 295.928 159.542C295.753 159.597 295.598 159.655 295.463 159.715L294.758 158.327C294.988 158.222 295.208 158.127 295.418 158.042C295.633 157.952 295.858 157.877 296.093 157.817C296.333 157.752 296.595 157.705 296.88 157.675C297.165 157.64 297.5 157.622 297.885 157.622C298.525 157.622 299.068 157.702 299.513 157.862C299.963 158.017 300.328 158.24 300.608 158.53C300.888 158.815 301.09 159.16 301.215 159.565C301.345 159.965 301.41 160.407 301.41 160.892V164.5L301.583 166ZM299.033 162.25C298.958 162.245 298.87 162.24 298.77 162.235C298.67 162.23 298.568 162.227 298.463 162.227C298.358 162.222 298.253 162.22 298.148 162.22C298.048 162.215 297.96 162.213 297.885 162.213C297.695 162.213 297.505 162.23 297.315 162.265C297.13 162.3 296.965 162.36 296.82 162.445C296.675 162.53 296.558 162.642 296.468 162.782C296.378 162.922 296.333 163.097 296.333 163.307C296.333 163.477 296.363 163.632 296.423 163.772C296.488 163.907 296.573 164.025 296.678 164.125C296.783 164.225 296.903 164.302 297.038 164.357C297.173 164.412 297.313 164.44 297.458 164.44C297.743 164.44 298.015 164.377 298.275 164.252C298.535 164.127 298.788 163.96 299.033 163.75V162.25ZM310.476 165.715C310.476 166.18 310.451 166.62 310.401 167.035C310.351 167.45 310.236 167.815 310.056 168.13C309.881 168.445 309.624 168.693 309.284 168.873C308.949 169.058 308.496 169.15 307.926 169.15C307.796 169.15 307.661 169.14 307.521 169.12C307.381 169.105 307.239 169.08 307.094 169.045C306.954 169.01 306.819 168.965 306.689 168.91C306.559 168.86 306.441 168.803 306.336 168.738L307.071 167.838C307.146 167.838 307.239 167.828 307.349 167.808C307.464 167.793 307.574 167.738 307.679 167.643C307.784 167.548 307.874 167.4 307.949 167.2C308.029 167 308.069 166.715 308.069 166.345V156.797C308.069 156.442 308.031 156.162 307.956 155.957C307.881 155.752 307.789 155.6 307.679 155.5C307.569 155.395 307.451 155.33 307.326 155.305C307.206 155.28 307.101 155.267 307.011 155.267L306.336 154.412C306.441 154.347 306.559 154.29 306.689 154.24C306.819 154.185 306.954 154.14 307.094 154.105C307.239 154.07 307.381 154.045 307.521 154.03C307.661 154.01 307.796 154 307.926 154C308.496 154 308.949 154.085 309.284 154.255C309.624 154.425 309.881 154.66 310.056 154.96C310.236 155.26 310.351 155.612 310.401 156.017C310.451 156.417 310.476 156.85 310.476 157.315V165.715Z" fill="#755036"/>
</svg>
