<svg width="601" height="216" viewBox="0 0 601 216" fill="none" xmlns="http://www.w3.org/2000/svg">
<path d="M13.01 17.3H62.42V209H46.76L39.74 133.94H25.97L13.55 209H0.86L13.01 17.3ZM43.79 121.25C44.87 121.25 45.41 120.71 45.41 119.63V27.56C45.41 26.48 44.87 25.94 43.79 25.94H32.18C31.1 25.94 30.56 26.48 30.56 27.56V119.9C30.56 120.8 31.1 121.25 32.18 121.25H43.79ZM151.404 209C142.224 209 135.384 207.47 130.884 204.41C126.384 201.17 124.134 197.12 124.134 192.26V32.42C124.134 28.1 126.024 24.5 129.804 21.62C133.584 18.74 138.894 17.3 145.734 17.3H190.014V32.42L185.694 66.17H167.874L165.174 35.66C164.994 34.04 163.914 33.23 161.934 33.23H150.594C146.634 33.23 144.024 34.76 142.764 37.82C141.684 40.7 141.234 44.84 141.414 50.24L147.084 184.97C147.084 186.05 147.624 186.59 148.704 186.59H164.634C166.614 186.59 167.694 186.05 167.874 184.97L173.274 163.91H190.014V209H151.404ZM212.534 68.06L206.864 64.82V51.86H257.624L258.164 91.82H246.554C246.554 89.84 246.014 85.43 244.934 78.59C243.854 71.57 242.774 68.06 241.694 68.06L226.844 67.79L230.354 209H212.534V68.06ZM274.729 51.86H294.709L292.549 195.23L296.329 203.33L296.059 215.48H275.809L274.729 51.86ZM269.599 29.72L292.279 0.559996L304.699 13.52L278.779 36.2L269.599 29.72ZM321.462 195.77L323.352 66.44H311.742V58.34L323.352 52.13L327.942 17.3H340.902V51.86H367.362V68.06H340.362V189.56L355.752 194.42L358.452 172.01H367.902V209H333.072L321.462 195.77ZM384.178 51.86H401.188L405.508 209H384.178V51.86ZM379.588 10.28H404.698V35.93L380.668 36.74L379.588 10.28ZM441.686 209C437.366 209 433.946 208.19 431.426 206.57C429.086 204.77 427.916 202.34 427.916 199.28V63.2C427.916 59.06 429.086 56.18 431.426 54.56C433.766 52.76 437.186 51.86 441.686 51.86H476.246L475.436 83.99H464.366L461.396 69.41C461.036 68.15 460.226 67.52 458.966 67.52H446.006C444.926 67.52 444.206 67.7 443.846 68.06C443.666 68.42 443.576 69.05 443.576 69.95L446.276 191.45C446.276 192.89 446.996 193.61 448.436 193.61L462.476 195.23C463.556 195.23 464.276 194.42 464.636 192.8L465.446 176.06H477.056V209H441.686ZM512.381 209C507.341 209 503.111 207.83 499.691 205.49C496.271 202.97 494.561 199.91 494.561 196.31L494.831 130.43C494.651 126.65 495.641 123.68 497.801 121.52C500.141 119.18 503.111 118.01 506.711 118.01L529.391 119.63L530.201 68.87L526.961 67.25L497.801 65.36V51.86H533.441C538.481 51.86 542.081 53.21 544.241 55.91C546.401 58.43 547.481 62.93 547.481 69.41L546.671 193.07L551.531 195.77V209H512.381ZM529.391 191.18L528.851 134.48H513.731L512.381 136.1L511.301 191.18C511.301 191.72 511.391 192.08 511.571 192.26C511.931 192.44 512.651 192.62 513.731 192.8L528.041 193.34L529.391 191.18ZM578.913 157.7L572.703 17.3H600.783L590.523 159.32L578.913 157.7ZM572.703 184.16L598.623 183.08L597.543 209H572.703V184.16Z" fill="#755036"/>
</svg>
