<svg width="327" height="182" viewBox="0 0 327 182" fill="none" xmlns="http://www.w3.org/2000/svg">
<path d="M9.702 57.66H37.884V167H28.952L24.948 124.188H17.094L10.01 167H2.772L9.702 57.66ZM27.258 116.95C27.874 116.95 28.182 116.642 28.182 116.026V63.512C28.182 62.896 27.874 62.588 27.258 62.588H20.636C20.02 62.588 19.712 62.896 19.712 63.512V116.18C19.712 116.693 20.02 116.95 20.636 116.95H27.258ZM82.4778 167C77.2418 167 73.3405 166.127 70.7738 164.382C68.2072 162.534 66.9238 160.224 66.9238 157.452V66.284C66.9238 63.82 68.0018 61.7667 70.1578 60.124C72.3138 58.4813 75.3425 57.66 79.2438 57.66H104.5V66.284L102.036 85.534H91.8718L90.3318 68.132C90.2292 67.208 89.6132 66.746 88.4838 66.746H82.0158C79.7572 66.746 78.2685 67.6187 77.5498 69.364C76.9338 71.0067 76.6772 73.368 76.7798 76.448L80.0138 153.294C80.0138 153.91 80.3218 154.218 80.9378 154.218H90.0238C91.1532 154.218 91.7692 153.91 91.8718 153.294L94.9518 141.282H104.5V167H82.4778ZM114.264 86.612L111.03 84.764V77.372H139.982L140.29 100.164H133.668C133.668 99.0347 133.36 96.5193 132.744 92.618C132.128 88.614 131.512 86.612 130.896 86.612L122.426 86.458L124.428 167H114.264V86.612ZM146.659 77.372H158.055L156.823 159.146L158.979 163.766L158.825 170.696H147.275L146.659 77.372ZM143.733 64.744L156.669 48.112L163.753 55.504L148.969 68.44L143.733 64.744Z" fill="#755036"/>
<path d="M168.624 140.454L169.702 66.688H163.08V62.068L169.702 58.526L172.32 38.66H179.712V58.372H194.804V67.612H179.404V136.912L188.182 139.684L189.722 126.902H195.112V148H175.246L168.624 140.454ZM202.239 58.372H213.635L212.403 140.146L214.559 144.766L214.405 151.696H202.855L202.239 58.372ZM200.699 34.656H215.021V49.286L201.315 49.748L200.699 34.656ZM233.515 148C231.051 148 229.1 147.538 227.663 146.614C226.328 145.587 225.661 144.201 225.661 142.456V64.84C225.661 62.4787 226.328 60.836 227.663 59.912C228.997 58.8853 230.948 58.372 233.515 58.372H253.227L252.765 76.698H246.451L244.757 68.382C244.551 67.6633 244.089 67.304 243.371 67.304H235.979C235.363 67.304 234.952 67.4067 234.747 67.612C234.644 67.8173 234.593 68.1767 234.593 68.69L236.133 137.99C236.133 138.811 236.543 139.222 237.365 139.222L245.373 140.146C245.989 140.146 246.399 139.684 246.605 138.76L247.067 129.212H253.689V148H233.515ZM262.133 142.148V103.032L268.447 98.104H282.769L282.153 68.382C282.153 67.5607 281.743 67.15 280.921 67.15L271.527 66.072C270.603 66.072 270.039 66.4827 269.833 67.304L269.217 77.16H263.057L262.595 58.372H286.773L292.625 63.454V148H268.755L262.133 142.148ZM281.845 139.068C282.461 139.068 282.821 138.965 282.923 138.76C283.129 138.555 283.231 138.195 283.231 137.682L282.461 106.266L273.837 108.268C272.913 108.473 272.451 109.038 272.451 109.962V137.682C272.451 138.606 272.913 139.068 273.837 139.068H281.845Z" fill="#755036"/>
<path d="M307.242 138.74L303.7 58.66H319.716L313.864 139.664L307.242 138.74ZM303.7 153.832L318.484 153.216L317.868 168H303.7V153.832Z" fill="#755036"/>
<path d="M164.843 157.315C164.843 156.85 164.868 156.417 164.918 156.017C164.968 155.612 165.08 155.26 165.255 154.96C165.435 154.66 165.693 154.425 166.028 154.255C166.368 154.085 166.823 154 167.393 154C167.518 154 167.65 154.01 167.79 154.03C167.935 154.045 168.078 154.07 168.218 154.105C168.363 154.14 168.5 154.185 168.63 154.24C168.76 154.29 168.878 154.347 168.983 154.412L168.308 155.267C168.218 155.267 168.11 155.28 167.985 155.305C167.865 155.33 167.75 155.395 167.64 155.5C167.53 155.6 167.438 155.752 167.363 155.957C167.288 156.162 167.25 156.442 167.25 156.797V166.345C167.25 166.715 167.288 167 167.363 167.2C167.443 167.4 167.535 167.548 167.64 167.643C167.745 167.738 167.853 167.793 167.963 167.808C168.078 167.828 168.173 167.838 168.248 167.838L168.983 168.738C168.878 168.803 168.76 168.86 168.63 168.91C168.5 168.965 168.363 169.01 168.218 169.045C168.078 169.08 167.935 169.105 167.79 169.12C167.65 169.14 167.518 169.15 167.393 169.15C166.823 169.15 166.368 169.058 166.028 168.873C165.693 168.693 165.435 168.445 165.255 168.13C165.08 167.815 164.968 167.45 164.918 167.035C164.868 166.62 164.843 166.18 164.843 165.715V157.315ZM177.966 165.88C177.806 165.95 177.603 166.008 177.358 166.053C177.118 166.103 176.853 166.128 176.563 166.128C176.228 166.128 175.898 166.078 175.573 165.977C175.253 165.877 174.948 165.735 174.658 165.55C174.373 165.365 174.111 165.145 173.871 164.89C173.631 164.63 173.423 164.345 173.248 164.035C173.073 163.72 172.936 163.385 172.836 163.03C172.741 162.67 172.693 162.297 172.693 161.912C172.693 161.327 172.791 160.775 172.986 160.255C173.181 159.735 173.461 159.28 173.826 158.89C174.191 158.5 174.631 158.192 175.146 157.967C175.661 157.737 176.241 157.622 176.886 157.622C176.976 157.622 177.051 157.625 177.111 157.63C177.171 157.63 177.226 157.635 177.276 157.645L177.958 158.815V157.6L180.403 157.75V166.308C180.403 166.803 180.308 167.265 180.118 167.695C179.928 168.13 179.658 168.508 179.308 168.828C178.958 169.153 178.533 169.408 178.033 169.593C177.538 169.783 176.981 169.878 176.361 169.878C176.036 169.878 175.736 169.85 175.461 169.795C175.191 169.745 174.938 169.67 174.703 169.57C174.468 169.47 174.248 169.345 174.043 169.195C173.838 169.05 173.638 168.883 173.443 168.693L174.523 167.44C174.603 167.51 174.708 167.588 174.838 167.673C174.968 167.763 175.111 167.845 175.266 167.92C175.426 168 175.593 168.065 175.768 168.115C175.948 168.17 176.123 168.198 176.293 168.198C176.503 168.198 176.708 168.145 176.908 168.04C177.113 167.94 177.293 167.8 177.448 167.62C177.603 167.44 177.728 167.228 177.823 166.983C177.918 166.743 177.966 166.483 177.966 166.203V165.88ZM177.958 159.85C177.818 159.69 177.653 159.55 177.463 159.43C177.278 159.31 177.073 159.25 176.848 159.25C176.548 159.25 176.291 159.34 176.076 159.52C175.861 159.7 175.683 159.927 175.543 160.202C175.408 160.472 175.308 160.767 175.243 161.087C175.178 161.407 175.146 161.71 175.146 161.995C175.146 162.35 175.191 162.68 175.281 162.985C175.371 163.29 175.488 163.555 175.633 163.78C175.778 164.005 175.941 164.182 176.121 164.312C176.306 164.437 176.491 164.5 176.676 164.5C176.971 164.5 177.218 164.437 177.418 164.312C177.618 164.187 177.798 164.032 177.958 163.847V159.85ZM190.024 166H187.474V165.25L186.844 165.962C186.669 166.017 186.494 166.058 186.319 166.083C186.149 166.113 185.989 166.128 185.839 166.128C185.424 166.128 185.007 166.068 184.587 165.947C184.167 165.822 183.787 165.642 183.447 165.407C183.112 165.167 182.837 164.872 182.622 164.522C182.412 164.172 182.307 163.77 182.307 163.315C182.307 162.835 182.414 162.42 182.629 162.07C182.844 161.72 183.127 161.432 183.477 161.207C183.832 160.977 184.232 160.807 184.677 160.697C185.122 160.587 185.577 160.532 186.042 160.532C186.327 160.532 186.587 160.542 186.822 160.562C187.057 160.577 187.274 160.602 187.474 160.637C187.454 160.212 187.347 159.875 187.152 159.625C186.957 159.375 186.657 159.25 186.252 159.25C186.032 159.25 185.809 159.262 185.584 159.287C185.364 159.312 185.152 159.347 184.947 159.392C184.742 159.437 184.549 159.487 184.369 159.542C184.194 159.597 184.039 159.655 183.904 159.715L183.199 158.327C183.429 158.222 183.649 158.127 183.859 158.042C184.074 157.952 184.299 157.877 184.534 157.817C184.774 157.752 185.037 157.705 185.322 157.675C185.607 157.64 185.942 157.622 186.327 157.622C186.967 157.622 187.509 157.702 187.954 157.862C188.404 158.017 188.769 158.24 189.049 158.53C189.329 158.815 189.532 159.16 189.657 159.565C189.787 159.965 189.852 160.407 189.852 160.892V164.5L190.024 166ZM187.474 162.25C187.399 162.245 187.312 162.24 187.212 162.235C187.112 162.23 187.009 162.227 186.904 162.227C186.799 162.222 186.694 162.22 186.589 162.22C186.489 162.215 186.402 162.213 186.327 162.213C186.137 162.213 185.947 162.23 185.757 162.265C185.572 162.3 185.407 162.36 185.262 162.445C185.117 162.53 184.999 162.642 184.909 162.782C184.819 162.922 184.774 163.097 184.774 163.307C184.774 163.477 184.804 163.632 184.864 163.772C184.929 163.907 185.014 164.025 185.119 164.125C185.224 164.225 185.344 164.302 185.479 164.357C185.614 164.412 185.754 164.44 185.899 164.44C186.184 164.44 186.457 164.377 186.717 164.252C186.977 164.127 187.229 163.96 187.474 163.75V162.25ZM198.655 159.985C198.515 159.895 198.368 159.807 198.213 159.722C198.058 159.637 197.89 159.562 197.71 159.497C197.53 159.427 197.338 159.372 197.133 159.332C196.928 159.287 196.708 159.265 196.473 159.265C196.258 159.265 196.035 159.275 195.805 159.295C195.58 159.315 195.375 159.352 195.19 159.407C195.005 159.457 194.853 159.53 194.733 159.625C194.613 159.715 194.553 159.83 194.553 159.97C194.553 160.1 194.62 160.212 194.755 160.307C194.89 160.397 195.06 160.477 195.265 160.547C195.47 160.617 195.693 160.677 195.933 160.727C196.178 160.777 196.41 160.825 196.63 160.87C196.885 160.925 197.133 160.98 197.373 161.035C197.613 161.09 197.808 161.145 197.958 161.2C198.208 161.3 198.443 161.422 198.663 161.567C198.888 161.712 199.083 161.877 199.248 162.062C199.418 162.242 199.55 162.44 199.645 162.655C199.745 162.87 199.795 163.097 199.795 163.337C199.795 163.672 199.728 163.975 199.593 164.245C199.463 164.51 199.283 164.745 199.053 164.95C198.828 165.155 198.565 165.332 198.265 165.482C197.97 165.632 197.655 165.755 197.32 165.85C196.99 165.945 196.653 166.015 196.308 166.06C195.963 166.105 195.633 166.128 195.318 166.128C195.018 166.128 194.72 166.105 194.425 166.06C194.13 166.02 193.848 165.962 193.578 165.887C193.308 165.812 193.055 165.725 192.82 165.625C192.59 165.52 192.39 165.407 192.22 165.287L192.955 163.712C193.3 163.922 193.665 164.097 194.05 164.237C194.44 164.372 194.868 164.44 195.333 164.44C195.448 164.44 195.58 164.435 195.73 164.425C195.885 164.41 196.043 164.387 196.203 164.357C196.368 164.322 196.53 164.28 196.69 164.23C196.85 164.175 196.993 164.107 197.118 164.027C197.243 163.947 197.343 163.852 197.418 163.742C197.498 163.627 197.538 163.495 197.538 163.345C197.538 163.21 197.478 163.095 197.358 163C197.238 162.9 197.085 162.815 196.9 162.745C196.715 162.675 196.513 162.617 196.293 162.572C196.073 162.522 195.863 162.477 195.663 162.437C195.518 162.407 195.37 162.377 195.22 162.347C195.075 162.312 194.935 162.277 194.8 162.242C194.665 162.207 194.54 162.172 194.425 162.137C194.31 162.097 194.213 162.057 194.133 162.017H194.14C193.81 161.862 193.535 161.7 193.315 161.53C193.1 161.355 192.928 161.177 192.798 160.997C192.673 160.812 192.583 160.622 192.528 160.427C192.478 160.232 192.453 160.035 192.453 159.835C192.453 159.455 192.563 159.127 192.783 158.852C193.003 158.572 193.295 158.342 193.66 158.162C194.03 157.977 194.453 157.842 194.928 157.757C195.408 157.667 195.908 157.622 196.428 157.622C196.708 157.622 196.988 157.645 197.268 157.69C197.553 157.73 197.823 157.785 198.078 157.855C198.333 157.92 198.565 157.995 198.775 158.08C198.985 158.165 199.158 158.25 199.293 158.335L198.655 159.985ZM205.958 163.09C205.958 163.345 205.963 163.56 205.973 163.735C205.988 163.905 206.016 164.042 206.056 164.147C206.096 164.252 206.151 164.327 206.221 164.372C206.291 164.417 206.386 164.44 206.506 164.44C206.741 164.44 206.961 164.412 207.166 164.357C207.371 164.297 207.558 164.227 207.728 164.147C207.903 164.062 208.061 163.972 208.201 163.877L208.576 163.63L209.356 164.987C209.291 165.042 209.176 165.132 209.011 165.257C208.851 165.382 208.636 165.51 208.366 165.64C208.096 165.77 207.768 165.885 207.383 165.985C207.003 166.08 206.563 166.128 206.063 166.128C205.523 166.128 205.088 166.043 204.758 165.872C204.433 165.702 204.183 165.472 204.008 165.182C203.838 164.892 203.726 164.552 203.671 164.162C203.616 163.772 203.588 163.36 203.588 162.925V159.43H201.773V157.75H203.588V156.175L205.928 155.35V157.75H209.371L209.168 159.43H205.958V163.09ZM214.244 158.5L214.822 157.75C215.092 157.675 215.352 157.635 215.602 157.63C215.852 157.625 216.097 157.622 216.337 157.622C216.742 157.622 217.094 157.645 217.394 157.69C217.694 157.735 217.952 157.792 218.167 157.862C218.387 157.927 218.567 157.997 218.707 158.072C218.847 158.142 218.959 158.205 219.044 158.26L219.419 160.487L217.319 160.75L216.952 159.43L216.652 159.385C216.552 159.37 216.452 159.362 216.352 159.362C215.867 159.362 215.452 159.452 215.107 159.632C214.762 159.807 214.474 160.055 214.244 160.375V166H211.867V157.75L214.244 157.6V158.5ZM225.238 166.128C224.638 166.128 224.088 166.02 223.588 165.805C223.088 165.585 222.655 165.285 222.29 164.905C221.93 164.52 221.648 164.067 221.443 163.547C221.243 163.027 221.143 162.462 221.143 161.852C221.143 161.247 221.24 160.685 221.435 160.165C221.63 159.645 221.905 159.195 222.26 158.815C222.62 158.435 223.053 158.137 223.558 157.922C224.063 157.702 224.623 157.602 225.238 157.622C225.838 157.602 226.385 157.702 226.88 157.922C227.375 158.137 227.798 158.435 228.148 158.815C228.503 159.195 228.778 159.645 228.973 160.165C229.168 160.685 229.265 161.247 229.265 161.852C229.265 162.462 229.17 163.027 228.98 163.547C228.795 164.067 228.528 164.52 228.178 164.905C227.828 165.285 227.405 165.585 226.91 165.805C226.415 166.02 225.858 166.128 225.238 166.128ZM226.82 162.04C226.82 161.7 226.79 161.365 226.73 161.035C226.675 160.705 226.583 160.41 226.453 160.15C226.323 159.885 226.155 159.672 225.95 159.512C225.745 159.352 225.498 159.272 225.208 159.272C224.928 159.272 224.685 159.342 224.48 159.482C224.28 159.617 224.115 159.8 223.985 160.03C223.855 160.26 223.758 160.522 223.693 160.817C223.628 161.107 223.595 161.407 223.595 161.717C223.595 162.062 223.628 162.4 223.693 162.73C223.758 163.06 223.858 163.355 223.993 163.615C224.128 163.87 224.3 164.077 224.51 164.237C224.72 164.397 224.973 164.477 225.268 164.477C225.538 164.477 225.77 164.41 225.965 164.275C226.165 164.135 226.328 163.95 226.453 163.72C226.578 163.49 226.67 163.23 226.73 162.94C226.79 162.65 226.82 162.35 226.82 162.04ZM233.749 166H231.371V157.75L233.749 157.6V158.5L234.326 157.75C234.516 157.7 234.719 157.667 234.934 157.652C235.154 157.632 235.409 157.622 235.699 157.622C236.154 157.622 236.564 157.69 236.929 157.825C237.294 157.96 237.601 158.152 237.851 158.402C238.106 158.647 238.301 158.947 238.436 159.302C238.571 159.652 238.639 160.045 238.639 160.48V166H236.261V160.48C236.261 160.275 236.229 160.1 236.164 159.955C236.104 159.805 236.024 159.682 235.924 159.587C235.824 159.492 235.709 159.422 235.579 159.377C235.449 159.332 235.314 159.31 235.174 159.31C234.859 159.31 234.591 159.362 234.371 159.467C234.156 159.567 233.949 159.725 233.749 159.94V166ZM244.749 166.128C244.149 166.128 243.599 166.02 243.099 165.805C242.599 165.585 242.167 165.285 241.802 164.905C241.442 164.52 241.159 164.067 240.954 163.547C240.754 163.027 240.654 162.462 240.654 161.852C240.654 161.247 240.752 160.685 240.947 160.165C241.142 159.645 241.417 159.195 241.772 158.815C242.132 158.435 242.564 158.137 243.069 157.922C243.574 157.702 244.134 157.602 244.749 157.622C245.349 157.602 245.897 157.702 246.392 157.922C246.887 158.137 247.309 158.435 247.659 158.815C248.014 159.195 248.289 159.645 248.484 160.165C248.679 160.685 248.777 161.247 248.777 161.852C248.777 162.462 248.682 163.027 248.492 163.547C248.307 164.067 248.039 164.52 247.689 164.905C247.339 165.285 246.917 165.585 246.422 165.805C245.927 166.02 245.369 166.128 244.749 166.128ZM246.332 162.04C246.332 161.7 246.302 161.365 246.242 161.035C246.187 160.705 246.094 160.41 245.964 160.15C245.834 159.885 245.667 159.672 245.462 159.512C245.257 159.352 245.009 159.272 244.719 159.272C244.439 159.272 244.197 159.342 243.992 159.482C243.792 159.617 243.627 159.8 243.497 160.03C243.367 160.26 243.269 160.522 243.204 160.817C243.139 161.107 243.107 161.407 243.107 161.717C243.107 162.062 243.139 162.4 243.204 162.73C243.269 163.06 243.369 163.355 243.504 163.615C243.639 163.87 243.812 164.077 244.022 164.237C244.232 164.397 244.484 164.477 244.779 164.477C245.049 164.477 245.282 164.41 245.477 164.275C245.677 164.135 245.839 163.95 245.964 163.72C246.089 163.49 246.182 163.23 246.242 162.94C246.302 162.65 246.332 162.35 246.332 162.04ZM247.239 156.85H245.589L245.064 156.077L244.839 155.125L244.614 156.077L244.007 156.85H242.214L243.677 154.75L245.852 154.6L247.239 156.85ZM252.54 166H250.178V157.75L252.54 157.6V158.5L253.118 157.75C253.168 157.72 253.255 157.692 253.38 157.667C253.51 157.637 253.623 157.622 253.718 157.622C253.963 157.622 254.17 157.632 254.34 157.652C254.515 157.667 254.668 157.697 254.798 157.742C254.928 157.787 255.04 157.847 255.135 157.922C255.235 157.997 255.333 158.092 255.428 158.207C255.523 158.142 255.635 158.077 255.765 158.012C255.9 157.942 256.04 157.88 256.185 157.825C256.335 157.765 256.488 157.717 256.643 157.682C256.803 157.642 256.96 157.622 257.115 157.622C257.6 157.622 257.983 157.69 258.263 157.825C258.543 157.96 258.755 158.152 258.9 158.402C259.045 158.647 259.138 158.947 259.178 159.302C259.218 159.652 259.238 160.045 259.238 160.48V166H256.875V160.547C256.875 160.347 256.873 160.172 256.868 160.022C256.863 159.872 256.848 159.75 256.823 159.655C256.803 159.555 256.768 159.482 256.718 159.437C256.673 159.387 256.605 159.362 256.515 159.362C256.43 159.362 256.348 159.38 256.268 159.415C256.193 159.45 256.123 159.497 256.058 159.557C255.998 159.617 255.945 159.687 255.9 159.767C255.86 159.842 255.835 159.925 255.825 160.015V160.165C255.825 160.225 255.825 160.287 255.825 160.352C255.83 160.412 255.833 160.47 255.833 160.525V166H253.553V160.69C253.553 160.265 253.53 159.937 253.485 159.707C253.445 159.477 253.348 159.362 253.193 159.362C253.048 159.362 252.913 159.41 252.788 159.505C252.668 159.6 252.585 159.755 252.54 159.97V166ZM262.971 154.742H265.499V156.7H262.971V154.742ZM263.564 159.13L262.289 159.43H260.976L260.766 157.75H265.491V162.827C265.491 163.032 265.516 163.222 265.566 163.397C265.616 163.567 265.686 163.715 265.776 163.84C265.866 163.96 265.974 164.055 266.099 164.125C266.224 164.195 266.361 164.23 266.511 164.23C266.841 164.23 267.131 164.175 267.381 164.065C267.631 163.955 267.886 163.775 268.146 163.525L268.589 165.265C268.519 165.32 268.431 165.395 268.326 165.49C268.221 165.585 268.081 165.68 267.906 165.775C267.736 165.87 267.526 165.952 267.276 166.023C267.026 166.093 266.724 166.128 266.369 166.128C265.794 166.128 265.296 166.038 264.876 165.857C264.461 165.677 264.116 165.435 263.841 165.13C263.571 164.82 263.369 164.462 263.234 164.057C263.104 163.647 263.039 163.215 263.039 162.76V159.805L263.564 159.13ZM276.574 160.21C276.334 159.925 276.067 159.717 275.772 159.587C275.482 159.457 275.147 159.392 274.767 159.392C274.462 159.392 274.177 159.46 273.912 159.595C273.647 159.725 273.414 159.902 273.214 160.127C273.019 160.352 272.864 160.615 272.749 160.915C272.639 161.21 272.584 161.522 272.584 161.852C272.584 162.197 272.642 162.517 272.757 162.812C272.877 163.102 273.037 163.352 273.237 163.562C273.437 163.772 273.667 163.937 273.927 164.057C274.192 164.172 274.472 164.23 274.767 164.23C275.027 164.23 275.262 164.207 275.472 164.162C275.687 164.112 275.877 164.047 276.042 163.967C276.212 163.882 276.359 163.787 276.484 163.682C276.614 163.577 276.724 163.467 276.814 163.352L277.744 164.972C277.654 165.052 277.519 165.157 277.339 165.287C277.164 165.417 276.944 165.545 276.679 165.67C276.414 165.795 276.102 165.902 275.742 165.992C275.382 166.083 274.974 166.128 274.519 166.128C273.854 166.128 273.249 166.008 272.704 165.767C272.164 165.527 271.702 165.207 271.317 164.807C270.932 164.407 270.634 163.945 270.424 163.42C270.214 162.89 270.109 162.337 270.109 161.763C270.109 161.242 270.209 160.735 270.409 160.24C270.614 159.74 270.907 159.297 271.287 158.912C271.672 158.522 272.139 158.21 272.689 157.975C273.239 157.74 273.859 157.622 274.549 157.622C275.224 157.622 275.834 157.717 276.379 157.908C276.929 158.092 277.399 158.397 277.789 158.822L276.574 160.21ZM287.583 166H285.033V165.25L284.403 165.962C284.228 166.017 284.053 166.058 283.878 166.083C283.708 166.113 283.548 166.128 283.398 166.128C282.983 166.128 282.565 166.068 282.145 165.947C281.725 165.822 281.345 165.642 281.005 165.407C280.67 165.167 280.395 164.872 280.18 164.522C279.97 164.172 279.865 163.77 279.865 163.315C279.865 162.835 279.973 162.42 280.188 162.07C280.403 161.72 280.685 161.432 281.035 161.207C281.39 160.977 281.79 160.807 282.235 160.697C282.68 160.587 283.135 160.532 283.6 160.532C283.885 160.532 284.145 160.542 284.38 160.562C284.615 160.577 284.833 160.602 285.033 160.637C285.013 160.212 284.905 159.875 284.71 159.625C284.515 159.375 284.215 159.25 283.81 159.25C283.59 159.25 283.368 159.262 283.143 159.287C282.923 159.312 282.71 159.347 282.505 159.392C282.3 159.437 282.108 159.487 281.928 159.542C281.753 159.597 281.598 159.655 281.463 159.715L280.758 158.327C280.988 158.222 281.208 158.127 281.418 158.042C281.633 157.952 281.858 157.877 282.093 157.817C282.333 157.752 282.595 157.705 282.88 157.675C283.165 157.64 283.5 157.622 283.885 157.622C284.525 157.622 285.068 157.702 285.513 157.862C285.963 158.017 286.328 158.24 286.608 158.53C286.888 158.815 287.09 159.16 287.215 159.565C287.345 159.965 287.41 160.407 287.41 160.892V164.5L287.583 166ZM285.033 162.25C284.958 162.245 284.87 162.24 284.77 162.235C284.67 162.23 284.568 162.227 284.463 162.227C284.358 162.222 284.253 162.22 284.148 162.22C284.048 162.215 283.96 162.213 283.885 162.213C283.695 162.213 283.505 162.23 283.315 162.265C283.13 162.3 282.965 162.36 282.82 162.445C282.675 162.53 282.558 162.642 282.468 162.782C282.378 162.922 282.333 163.097 282.333 163.307C282.333 163.477 282.363 163.632 282.423 163.772C282.488 163.907 282.573 164.025 282.678 164.125C282.783 164.225 282.903 164.302 283.038 164.357C283.173 164.412 283.313 164.44 283.458 164.44C283.743 164.44 284.015 164.377 284.275 164.252C284.535 164.127 284.788 163.96 285.033 163.75V162.25ZM296.476 165.715C296.476 166.18 296.451 166.62 296.401 167.035C296.351 167.45 296.236 167.815 296.056 168.13C295.881 168.445 295.624 168.693 295.284 168.873C294.949 169.058 294.496 169.15 293.926 169.15C293.796 169.15 293.661 169.14 293.521 169.12C293.381 169.105 293.239 169.08 293.094 169.045C292.954 169.01 292.819 168.965 292.689 168.91C292.559 168.86 292.441 168.803 292.336 168.738L293.071 167.838C293.146 167.838 293.239 167.828 293.349 167.808C293.464 167.793 293.574 167.738 293.679 167.643C293.784 167.548 293.874 167.4 293.949 167.2C294.029 167 294.069 166.715 294.069 166.345V156.797C294.069 156.442 294.031 156.162 293.956 155.957C293.881 155.752 293.789 155.6 293.679 155.5C293.569 155.395 293.451 155.33 293.326 155.305C293.206 155.28 293.101 155.267 293.011 155.267L292.336 154.412C292.441 154.347 292.559 154.29 292.689 154.24C292.819 154.185 292.954 154.14 293.094 154.105C293.239 154.07 293.381 154.045 293.521 154.03C293.661 154.01 293.796 154 293.926 154C294.496 154 294.949 154.085 295.284 154.255C295.624 154.425 295.881 154.66 296.056 154.96C296.236 155.26 296.351 155.612 296.401 156.017C296.451 156.417 296.476 156.85 296.476 157.315V165.715Z" fill="#755036"/>
</svg>
