<svg fill="#75503696" version="1.1" id="Capa_1" xmlns="http://www.w3.org/2000/svg" xmlns:xlink="http://www.w3.org/1999/xlink" viewBox="0 0 110.685 110.685" xml:space="preserve"><g id="SVGRepo_bgCarrier" stroke-width="0"></g><g id="SVGRepo_tracerCarrier" stroke-linecap="round" stroke-linejoin="round"></g><g id="SVGRepo_iconCarrier"> <g> <path d="M85.294,70.675c-1.239-1.128-2.652-1.993-4.14-2.721c0.09-0.074,0.189-0.116,0.274-0.2 c1.919-1.783,3.037-4.198,3.147-6.824c0.09-2.215-0.686-4.332-2.193-5.962c-1.503-1.627-3.538-2.57-5.753-2.657 c-0.96,0.037-1.904,0.725-2.136,1.695c-0.312,0.406-0.533,0.87-0.554,1.416c-0.053,1.447,1.064,2.655,2.515,2.716 c0.786,0.031,1.472-0.298,1.968-0.81c0.284,0.171,0.559,0.329,0.785,0.572c0.718,0.783,1.092,1.785,1.039,2.845 c-0.053,1.461-0.686,2.821-1.756,3.817c-1.076,1.008-2.405,1.54-3.939,1.461c-0.332,0.011-0.622,0.105-0.918,0.222 c-0.2,0.011-0.4-0.031-0.601-0.021c-5.548,0.242-10.689,2.631-14.429,6.739c-0.4,0.427-0.738,0.896-1.089,1.35V55.397 c14.31-1.123,25.663-12.991,25.663-27.588C83.179,12.475,70.691,0,55.367,0C40.042,0,27.568,12.48,27.568,27.81 c0,14.597,11.34,26.465,25.649,27.588v18.916c-0.351-0.453-0.686-0.923-1.086-1.35c-3.742-4.108-8.883-6.497-14.428-6.739 c-0.177-0.011-0.356,0.031-0.551,0.021c-0.319-0.137-0.619-0.242-0.97-0.222c-1.529,0.105-2.869-0.453-3.953-1.461 c-1.075-0.996-1.698-2.356-1.761-3.817c-0.05-1.05,0.334-2.067,1.046-2.845c0.227-0.251,0.525-0.396,0.789-0.572 c0.509,0.517,1.2,0.841,1.972,0.81c1.434-0.061,2.576-1.269,2.5-2.716c-0.021-0.546-0.242-1.016-0.546-1.427 c-0.248-0.994-1.199-1.737-2.138-1.685c-2.215,0.092-4.261,1.03-5.756,2.657c-1.495,1.63-2.284,3.742-2.194,5.962 c0.108,2.615,1.226,5.041,3.148,6.824c0.092,0.084,0.189,0.137,0.282,0.211c-1.469,0.717-2.9,1.571-4.148,2.71 c-3.359,3.08-5.313,7.288-5.513,11.834c-0.335,7.752,5.708,14.322,13.447,14.681c0.928,0.116,1.716-0.464,2.067-1.275 c1.236-0.644,2.138-1.856,2.186-3.333c0.103-2.215-1.624-4.093-3.844-4.183c-2.083-0.1-3.829,1.461-4.098,3.486 c-3.359-1.672-5.622-5.199-5.45-9.176c0.142-3.396,1.616-6.528,4.121-8.828c2.505-2.294,5.685-3.49,9.157-3.322 c4.385,0.19,8.451,2.1,11.433,5.337c2.407,2.642,3.839,5.938,4.18,9.424c-2.695,0.944-4.654,3.433-4.654,6.444 c0,0.785,0.206,1.503,0.454,2.209h-3.214c-0.793,0-1.521,0.433-1.911,1.145c-0.372,0.707-0.335,1.571,0.113,2.221l7.512,11.09 c0.983,1.439,2.402,2.257,3.937,2.257c1.535,0,2.959-0.817,3.935-2.257l7.509-11.09c0.448-0.66,0.496-1.514,0.116-2.221 c-0.38-0.712-1.107-1.145-1.909-1.145h-3.217c0.243-0.706,0.443-1.434,0.443-2.209c0-3.021-1.951-5.511-4.641-6.444 c0.337-3.48,1.771-6.782,4.187-9.424c2.979-3.254,7.04-5.146,11.434-5.337c3.396-0.115,6.645,1.018,9.149,3.322 c2.505,2.3,3.971,5.432,4.129,8.828c0.163,3.977-2.099,7.51-5.458,9.176c-0.27-2.025-2.015-3.575-4.098-3.486 c-2.22,0.101-3.934,1.968-3.845,4.183c0.063,1.487,0.966,2.7,2.188,3.343c0.333,0.754,1.098,1.266,1.957,1.266 c0.037,0,0.068,0,0.11,0c7.758-0.348,13.785-6.929,13.437-14.681C90.614,77.952,88.653,73.755,85.294,70.675z M55.356,4.319 c4.994,0,10.552,9.65,10.552,23.509c0,11.857-4.081,20.582-8.393,22.858V27.718c0-1.192-0.97-2.154-2.159-2.154 c-1.187,0-2.159,0.968-2.159,2.154v22.968c-4.304-2.281-8.388-11.005-8.388-22.858C44.81,13.97,50.368,4.319,55.356,4.319z M78.854,27.81c0,9.585-5.784,17.832-14.054,21.477c3.307-5.06,5.432-12.683,5.432-21.477c0-8.791-2.125-16.416-5.432-21.481 C73.054,9.991,78.854,18.226,78.854,27.81z M31.866,27.81c0-9.59,5.79-17.829,14.051-21.481 c-3.299,5.065-5.432,12.686-5.432,21.481c0,8.799,2.133,16.417,5.432,21.477C37.661,45.647,31.866,37.413,31.866,27.81z"></path> </g> </g></svg>